<svg xmlns="http://www.w3.org/2000/svg" viewBox="0 0 101.66 47.41"><title>Blizzard Entertainment logo</title><path d="M553.14,499.25a6.47,6.47,0,0,0,0,2.26c0,.8,0,1.74,0,2.61a26.09,26.09,0,0,0,0,2.61c0,.26.23.5.29.75a13.6,13.6,0,0,0,.45,2,4.73,4.73,0,0,1,.29.5c0,5.87-.09,11.6,0,17.48a6.14,6.14,0,0,0,1.19-1.76,6.69,6.69,0,0,0,.4-1.15c.11-.46.06-.89.15-1.39.15-.85.86-1.6,1-2.46a17.32,17.32,0,0,0,0-2.41c0-1.66.05-3.12.15-4.67a9.65,9.65,0,0,1,.2-2.26c.12-.35.5-.59.64-1s.17-1.13.35-1.66.44-.69.49-1a11.85,11.85,0,0,0,0-1.71,11,11,0,0,0,0-1.71c0-.19-.21-.31-.29-.5-.25-.59-.29-1.53-.49-2-.38-.79-1.45-.9-1.37-1.91-.61.11-.79-.61-1.29-.75a14.7,14.7,0,0,0-2.13,0C553.14,499.11,553.14,499.18,553.14,499.25Zm-7.08-10.9c.77.12,1.34-.17,1.93,0,.21.06.26.32.49.4.38.12.65-.09,1.09,0a3,3,0,0,0,.35.4c.34.23,1,.33,1.53.6.32.17.58.53.84.6s.69-.1,1,0,.34.48.6.6.76-.08,1,0,.24.28.45.4h1.44c.23,0,.19.32.34.4.52.12,1.06-.17,1.58,0,.25.08.69.79.95,1a3.23,3.23,0,0,1,1.64,2.29,7.65,7.65,0,0,0,.89,2c0,.62,0,1.22,0,1.86a13.75,13.75,0,0,0,0,1.81,10.73,10.73,0,0,0,.49,1.46,20.18,20.18,0,0,1,.1,2.86,9,9,0,0,1,0,2.47c-.11.4-.57.84-.64,1.31a10.22,10.22,0,0,0,.1,1.6A3.59,3.59,0,0,1,561,513c-.1.58-.07,1.22-.2,1.81a6.54,6.54,0,0,0-.29,1.31c0,.53.07,1.11.1,1.66a42.51,42.51,0,0,1,.1,4.92c0,.69-.34,1.29-.4,1.91a25.74,25.74,0,0,1-.1,2.86c-.09.44-.27.87-.35,1.31s-.14.92-.25,1.39a8.7,8.7,0,0,1-1,2.18c-.29,0-.4.45-.69.65a8.79,8.79,0,0,1-2.06.65l-1,.3a4.88,4.88,0,0,1-1,.35c-.38,0-.69-.37-1-.45a4.3,4.3,0,0,1-3.08.55c0-.22.21-.43.35-.6a4.21,4.21,0,0,0,.4-4.47c.53-.36,1.37-.44,1.69-1,0-.26-.37-.12-.4-.35-.23-.69-.53-1.39-.84-2.08a3.35,3.35,0,0,1-.29-.65,9.82,9.82,0,0,1,.15-1.71c.16-1.6.36-3.4.55-5a10.72,10.72,0,0,1-1-1.86,8.37,8.37,0,0,1-.69-2.16c0-.34.12-.74,0-1.1s-.34-.46-.4-.69a8.44,8.44,0,0,1,0-1.39,12.72,12.72,0,0,1,0-2.08c0-.2-.25-.26-.29-.45-.15-.56.21-1.58.15-2.41,0-.54-.29-1-.35-1.51a34,34,0,0,1,0-3.71V499.3a9.66,9.66,0,0,1,0-1.81c.07-.24.25-.22.35-.45.16-1-.22-1.89,0-2.71.05-.22.34-.34.4-.56a6.79,6.79,0,0,0,0-1.86c-.06-.24-.51-.65-.79-.9-.9-.84-1.8-1.64-2.58-2.51A.24.24,0,0,1,546.06,488.35Z" transform="translate(-461.17 -488.29)" style="fill:#009ae4;fill-rule:evenodd"/><path d="M538.87,494.33c0,3.35-.07,6.94,0,10.19,0,.17-.09.47.1.6a2,2,0,0,0,1.19-.1c1.13-.43,1.27-1.39,1.69-2.61a6,6,0,0,0,.3-.69c.05-.36,0-.69,0-1.06s.3-.51.35-.76a4.7,4.7,0,0,0-.15-2.08,8.75,8.75,0,0,0-1.44-2.08c-.58-.69-1.28-1.51-2-1.56A.13.13,0,0,0,538.87,494.33Zm3.57,11.6c0,.41.12.94-.15,1.15a1.77,1.77,0,0,1,2.06.56c.12.11.23.33.4.5s.38.26.45.4,0,.61.1.81.53.24.74.4c.12.55.19,1.15.35,1.76,0,.17.16.33.2.5.21,1,0,2.19.14,3.21.08.5.32.92.35,1.39.13.26.41-.15.49.1.33,1.78.93,3.91.45,5.78,0,.23.42.12.49.3a5.91,5.91,0,0,1,.49,1.31c0,.17-.19.37-.2.55a8.2,8.2,0,0,0,.15.85,6.63,6.63,0,0,1,0,1.15,8,8,0,0,0-.15,1.06c0,.23.18.44.2.65a6.38,6.38,0,0,1-.29,1.51c-.27,1.48-.5,3-.84,4.42-.56-.26-1.08-.3-1.53-.56a8.24,8.24,0,0,1-1.24-1.1,3.43,3.43,0,0,0-3-1.21,5.08,5.08,0,0,1,.49-2.08c.23-.64.46-1.29.64-2a18.2,18.2,0,0,0,.25-5,22,22,0,0,0-.53-3.21,10,10,0,0,0-.95-2.86,1,1,0,0,0-.54-.5c0-1,.5-1.85.34-2.78a4,4,0,0,0-.45-1,8.8,8.8,0,0,0-1.73-2.41,2.74,2.74,0,0,1-.4,1.71,4.31,4.31,0,0,0-.4.9,11.4,11.4,0,0,0,.2,2.46c.15,1.62.31,3.16.49,4.82a11.44,11.44,0,0,1,.25,2.36c0,.23-.21.38-.25.6s.3.47.35.9a11.43,11.43,0,0,1,0,2.86,7.85,7.85,0,0,0-.25.81,11.47,11.47,0,0,0,.25,2c0,.32.07.69.1,1,.06.69.16,1.3-.35,1.56a10.66,10.66,0,0,1-.35,3.56c-.28-.29-.29-.69-.45-1.06a10.55,10.55,0,0,0-3.27-4.12,5.73,5.73,0,0,1-1.64-1.31,40,40,0,0,1,1.54-4.67c.13-.28.39-.52.45-.81a1.81,1.81,0,0,0-.45-1.69v-5.07c0-1.74.14-3.47,0-5.07a7.38,7.38,0,0,0-.25-1.1c-.07-.41,0-.87-.1-1.26s-.34-.62-.4-1,0-.74,0-1.1-.23-.91-.29-1.39c0-.28,0-.56,0-.81s-.21-.49-.25-.76,0-.47,0-.69a5.85,5.85,0,0,1-.1-.65,13.15,13.15,0,0,0,0-1.66c-.07-.31-.45-.47-.4-.9-.05-.17-.28-.18-.35-.35a27.49,27.49,0,0,1,0-3.51,17.23,17.23,0,0,0,3.43-3,3.8,3.8,0,0,0-1-.35c-.19,0-.29.24-.49.3a1.19,1.19,0,0,1-.69,0c-.43-1.59-1.75-2.28-2.88-3.17a5.75,5.75,0,0,1-.74-.15c-.18,0-.58,0-.54-.3s.45-.15.69-.15a9.56,9.56,0,0,0,1.19,0c1.08-.08,2.34.08,3.27,0,.36-.06.65-.3,1-.3a1,1,0,0,1,.79.4c.52.07,1.15-.09,1.73,0a10.64,10.64,0,0,1,1.53.5,9.68,9.68,0,0,0,1.49.5c.38.06.75,0,1.09,0,1.1.27,1.56,1.26,2.43,1.66.37,1,.93,2,1.37,3a4,4,0,0,1,.49,2.31,8.42,8.42,0,0,1,0,1c-.07.37-.34.64-.4,1-.08.54.06,1,0,1.6a8.83,8.83,0,0,1-1.1,2.85,3.74,3.74,0,0,1-1.32,1.51A3.67,3.67,0,0,1,542.44,505.93Z" transform="translate(-461.17 -488.29)" style="fill:#009ae4;fill-rule:evenodd"/><path d="M482.43,489.45c.29.27.47.69.84.85a3,3,0,0,1,.66,0,22.07,22.07,0,0,0,1.79,2V494a8.74,8.74,0,0,1,0,1.76c-.07.24-.38.39-.4.6,0,.5.59.62.75.9-.09.51.12,1.17,0,1.61-.08.27-.29.26-.34.5v5.8a8.11,8.11,0,0,0,0,1.91c.09.29.58.48.69.69a4.65,4.65,0,0,1,.2,1.26q.09,2.86-.1,5.72a5.55,5.55,0,0,1-.1,1.15c-.07.2-.3.34-.35.5-.22.78.16,1.8,0,2.51,0,.23.32.18.35.4a10.05,10.05,0,0,1,0,2.16c-.14.22-.36.19-.49.4a1.34,1.34,0,0,0-.2.55c0,.36.49.52.34,1.21,0,.21-.13.26-.34.5-.11.48.14,1,0,1.56,0,.19-.34.35-.4.56-.18.6.17,1.62,0,2.31-.05.23-.33.35-.34.65s.5.69.34,1.21c.45,0,.9.08,1.37.1a3.72,3.72,0,0,0,1.37,0c.23-.09.27-.35.45-.5a2.14,2.14,0,0,1,.79-.45,3.79,3.79,0,0,1,1.37.25,4.69,4.69,0,0,0,3.27,0c.23-.13.25-.33.54-.45a8.4,8.4,0,0,1,2.28-.25c3.24-.15,7,0,10.36,0v2.36a14.9,14.9,0,0,0,0,2.31c.12.69.69,1.14.84,1.66h-3.77a6,6,0,0,1-1.24,0c-.23-.07-.26-.29-.45-.4-.69,0-1.27,0-1.49-.4-.58.1-.69-.24-1-.4h-1.85c-1.1,0-2.1.17-2.43-.5-3-.08-6.12-.1-9.22-.1a2.66,2.66,0,0,0-2.38-.6,3.51,3.51,0,0,0-1,.65c-.34.25-.69.49-.94.69s-.41.55-.6.69c-1-.17-2.5-.44-3.37,0-.27-.1-.29-.43-.6-.5.12-.33.42-.47.45-.9A8.2,8.2,0,0,0,480.4,532c.08-.5-.11-1.15,0-1.56s.33-.31.4-.56-.35-.28-.4-.55c.16-1.06-.22-2,0-2.81.06-.22.34-.35.4-.55.11-.38-.1-.75,0-1.1s.27-.25.35-.45c.11-.81-.42-1-.75-1.39v-4.9c.08-.19.34-.19.4-.4a7.43,7.43,0,0,1,0-2.61c.09-.24.25-.31.35-.5v-1.91a10,10,0,0,1,0-1.91c.1-.42.5-.64.49-1.06s-.34-.66-.49-.9v-4.06a7.38,7.38,0,0,0,0-1.39c-.06-.25-.24-.3-.35-.51v-1.46a6.53,6.53,0,0,1,0-1.46c.12-.41.62-.45.74-.81,0-.94.4-2.71-.45-3a4.77,4.77,0,0,0,.69-1.76,4.91,4.91,0,0,0-.69-2.36,3.71,3.71,0,0,0-1-.1,3.66,3.66,0,0,0-1.19-1.51,5.18,5.18,0,0,1-.74-.6c0-.12.4-.42.45-.75,0-.07,0-.15,0-.15h.55c.23,0,.18.35.4.4Z" transform="translate(-461.17 -488.29)" style="fill:#009ae4;fill-rule:evenodd"/><path d="M525.79,506c-.38.42-.46,1.15-.84,1.46-.06,0-.26.07-.25.25-.1.44,0,.85-.1,1.31s-.25.74-.29,1.1c-.16,1.13.22,2.19,0,3.37a4.08,4.08,0,0,1,2.82.6,3.42,3.42,0,0,0,1.53.69c.05-1.46.12-3.2,0-4.72a7.59,7.59,0,0,0,0-.85,4.3,4.3,0,0,0-.2-.55c-.22-.9-.1-2.08-.64-2.46s-1-.18-1.29-.45-.4-.69-.74-1.26c0,.55-.12,1-.05,1.51Zm3,29.73c-.06-.9.09-1.6,0-2.31a11.39,11.39,0,0,0-.55-1.81c-.09-.29-.2-.59-.29-.9a6.63,6.63,0,0,1-.25-.9,12.82,12.82,0,0,0,0-1.31c-.16-.69-1.31-1.31-1.64-2.08a2,2,0,0,1-.2-.9c0-.29.69-1,.84-1.26a9.21,9.21,0,0,0,1.29-2.78,4.54,4.54,0,0,0,.25-1.81c-.08-.37-.69-.69-1-1-.88-.58-1.66-.94-2.53-1.46a2,2,0,0,0-1.44-.56,7,7,0,0,1,.29,2.86c.18.17.42.31.64.5a6.1,6.1,0,0,0,.64.5c-.12.52-.51.75-.64,1.26a28.75,28.75,0,0,0-3,0,10.76,10.76,0,0,0-2,.69c-.69.25-1.37.47-2,.69-.45-.24-.32-1.06-.69-1.39a10.82,10.82,0,0,1,.64-1c.25-.28.64-.48.75-.81s0-.63.1-.9c.21-.69.69-.94,1.37-1.39,0-.27-.47-.27-.35-.5-.07-.69.29-1.39.29-2.16a9.24,9.24,0,0,1-.15-1.39,1.41,1.41,0,0,1,.54-.75c.08-.5-.11-1,0-1.46s.38-.33.4-.6c-.14-.25-.33-.24-.4-.5a5.11,5.11,0,0,1,.1-1c0-.69-.19-1.21,0-1.76.14-.33.43-.58.6-.9a5.9,5.9,0,0,0,.45-2.16c.12-.19.37-.37.45-.55a15.52,15.52,0,0,0,.35-2.46,6.85,6.85,0,0,1,.74-2.08c.16-.29.46-.53.49-.76s-.16-.65-.1-1,.29-.44.49-.6a13.47,13.47,0,0,1,1-2.56c.14-.24.43-.42.49-.65.12-.46-.11-.93,0-1.39a2.89,2.89,0,0,1,.6-.85c.19-.17.47-.17.6-.35.14-.83-.06-2.78,1.29-2.16.69.31.6,1.28.79,2.08a5.49,5.49,0,0,0,.6,1.26c.23.42.69.8.74,1.1a8.16,8.16,0,0,1,0,1.31,18.82,18.82,0,0,0,1.37,4.32c.24.76.37,1.55.54,2.26.09.36.21.69.29,1.1a8.14,8.14,0,0,0,.25,1.15c.1.23.37.37.45.56.07.52-.09,1,0,1.39,0,.23.34.41.4.65s-.1.4,0,.56.34.31.4.5c-.05.55.08,1.28,0,1.91,0,.15-.09.31-.1.45a15.51,15.51,0,0,0,.35,3.11,16.59,16.59,0,0,1,.25,2.08c.09,2,.08,4.55,0,6.37a7.94,7.94,0,0,1-.1,1.39c-.08.31-.35.69-.49,1.1a11.79,11.79,0,0,1-1.37,3.31c-.1.69.13,1.35,0,2,0,.24-.27.44-.35.65a7.61,7.61,0,0,1-.74,2.08c-.08.38.1.77,0,1.15,0,.17-.29.32-.34.5-.14.49.12,1,0,1.51-.07.24-.36.42-.55.55C529.25,535.66,529.09,535.53,528.77,535.71Z" transform="translate(-461.17 -488.29)" style="fill:#009ae4;fill-rule:evenodd"/><path d="M523.32,490.06c.1.38-.18.69-.29,1a7.18,7.18,0,0,1-1.25,2.38,2.84,2.84,0,0,1-.25,1.86c-.23.37-.77.62-.84,1s.08.62,0,.9c-.07.58-.43.69-.79,1.1a18.35,18.35,0,0,1-.6,3.31,4.34,4.34,0,0,0-.47,1.14,5.37,5.37,0,0,0,0,.6c0,.64-.07,1.31-.1,2a6.7,6.7,0,0,1,0,1.56c-.05.17-.22.28-.29.45a14.57,14.57,0,0,0-.45,1.71,3.66,3.66,0,0,1-.69,1.46v1.31c-.25.62-1,.9-1.09,1.56a11.6,11.6,0,0,0,0,2.08,16.28,16.28,0,0,1,0,2.08,10.05,10.05,0,0,1-.55,1.6,12.86,12.86,0,0,0-.55,1.6c-.1.69.05,1.3,0,1.86a7.11,7.11,0,0,1-1.37,3.17c0,1-.53,1.6-.6,2.31.32.29.3-.32.6-.35.55.43,1.33,0,2.06,0,.27-.41.14-.89.4-1.26.39-.58,1.22-.64,1.88-.9.32-.13.69-.44,1.14-.65,1-.47,1.91-.75,2.28-1.81.32.12.29.42.6.5.48.15,1.22-.15,1.69,0a1.61,1.61,0,0,1,.69,1.06c0,.24-.29.51-.35.81a2.22,2.22,0,0,0,0,.69c0,.28.28.47.35.81a11.15,11.15,0,0,1,0,1.76,8.48,8.48,0,0,1,0,1.71c-.07.25-.52.47-.4.81h-5.48c-.23,0-.17-.36-.4-.4-.62,0-1.15-.29-1.64-.2s-.89.8-1.37.9c-1.15.15-2.15-.07-3.17.1-.74.12-1.37.76-2.18.69-.39-.36-.38-.78-.35-1.6a10.52,10.52,0,0,1,0-1.39c.08-.31.45-.47.49-.69a1.89,1.89,0,0,0-.06-.9c.16-.33.64-.38.79-.81a2.22,2.22,0,0,0,0-1.21c.14-.26.43-.31.49-.6s-.12-.64-.1-1,.26-.57.35-.85a4.35,4.35,0,0,0,.15-1.16,6.68,6.68,0,0,0-.15-1.71c-.07-.25-.31-.47-.4-.69a7.83,7.83,0,0,1-.29-3.11,16.22,16.22,0,0,1,.29-3.17,15.47,15.47,0,0,1,.54-1.51c.53-1.39,1.16-3,1.64-4.37,0-.28-.32-.31-.35-.69s.34-.69.49-1.1a5.85,5.85,0,0,0,.1-1.1,4.66,4.66,0,0,1,.55-1.1,4,4,0,0,0,.54-1.39c0-.37-.06-.78,0-1.21a5.64,5.64,0,0,1,.54-1.39,15.54,15.54,0,0,1,1.64-3.06c.16-.22.36-.33.4-.5.1-.39-.06-.76,0-1.06s.27-.3.35-.6c-.51-.53-1.37,0-2.06-.2-.32-.11-.37-.51-.6-.6a1.66,1.66,0,0,0-.89,0,3.2,3.2,0,0,0-.79.2c-.58.33-.93,1.91-1.09,2.78-.2,1-.29,2.52-.94,2.86-.49.26-.91-.1-1,.55a3.82,3.82,0,0,1-.69-.6,3.77,3.77,0,0,0,.2-.81c0-.4-.23-.81-.2-1.16s.46-.59.55-.9a8.89,8.89,0,0,0,0-1.71v-5.07a.37.37,0,0,1,.15-.1h12.42c.19.08.24.29.35.45C523,490,523.25,489.92,523.32,490.06Z" transform="translate(-461.17 -488.29)" style="fill:#009ae4;fill-rule:evenodd"/><path d="M469.65,511.2c0,.16-.16.26-.2.4-.21.83.22,1.6.2,2.36,0,.6-.36,1.19-.35,1.81-.25.1-.41.24-.4.5s.29.31.4.5v6.88a1.43,1.43,0,0,0-.5,1,23.83,23.83,0,0,0,0,3,6,6,0,0,0,.14,1.39c-.23.4-.45.82-.64,1.26,1.12.06,1.25-.88,2.13-1.06a14.93,14.93,0,0,0,1.29-1.39,3.75,3.75,0,0,0,.45-.45c.45-.76.11-1.92.35-3a9.75,9.75,0,0,0,.79-3.47c0-.22-.26-.17-.29-.35.49-.27.21-.81,0-1.26a2.4,2.4,0,0,1-.25-1.39c0-.15.33-.35.4-.65.17-.77-.34-1-.49-1.39-.33-.91.21-1.55.29-2.41,0-.18-.21-.19-.25-.35.46-.55-.21-1.3-.34-1.56.1,0,.32.06.34,0a1.2,1.2,0,0,1-.29-.6c0-.21.2-.2.15-.45a3.18,3.18,0,0,0-1.14-1.15,16.63,16.63,0,0,1-1.83-1.66,25.23,25.23,0,0,1,0,3.61Zm.34-15.66c-.05.19-.31.19-.34.4v7a1.25,1.25,0,0,1,.84,0c.42-.3.47-.88.74-1.31a2.05,2.05,0,0,1,1.69-1c0-1.12-.14-2.46.35-3.11a3.17,3.17,0,0,1-.35-1.39c.13-.2.4-.27.55-.45-.44-.16-.6,0-1-.15s-.44-.62-.69-.69c-.53-.16-1.08.32-1.69.15,0-.07.22-.26,0-.25A2.31,2.31,0,0,0,470,495.54Zm4.51,9.14a1.53,1.53,0,0,0,.89.6c.31.11,1,.12,1.14.35.52.69-.6,1.39-.25,1.91.17.24.18,0,.4,0,.44.36.64,1,1.09,1.31-.23,1.24-.63,3.18,0,4.32.22.42.6.51.79.9-.54,2.15.6,5.22-.15,7-.1.25-.4.5-.45.76a4.66,4.66,0,0,0,.15,1.15,4.73,4.73,0,0,1-.1,2.41,8.1,8.1,0,0,1-.4,1.1,19.28,19.28,0,0,0-1.14,2,12.93,12.93,0,0,0-.49,2.61,14.22,14.22,0,0,0-2.93,1.71,3.32,3.32,0,0,0-1.24,1.31,6.71,6.71,0,0,0-2.82.75c-.38,0-.45-.53-.84-.56s-.56.53-.89.65a3.41,3.41,0,0,1-1,.1,12.32,12.32,0,0,1-2.12-.25c-.38.25-.9,0-1.44,0a1.36,1.36,0,0,0-.3,0c-.07,0-.15.15-.15.15-.2,0-.69-.63-.74-.69a5.32,5.32,0,0,0,1.37-.69,32.72,32.72,0,0,0,.79-3.26,13.4,13.4,0,0,0,0-1.39c0-1,.14-2,.15-3,0-1.78-.34-3.56-.45-5.37-.13-2.37.19-4.74.1-7.18.08-.22.45-.15.55-.35-.07-.63.06-1.23,0-1.86,0-.24-.25-.42-.3-.65a10.22,10.22,0,0,1,0-2,5.92,5.92,0,0,1,0-.85c0-.25.33-.53.4-.85a2.19,2.19,0,0,0-.45-1.91v-7.06a11,11,0,0,1,0-2.31c.08-.27.25-.26.4-.5-.11-.42.07-.75-.1-1s-.4,0-.84-.1c-.15-.09-.07-.27-.15-.4-.27-.46-.92-.77-1.29-1.21a6.13,6.13,0,0,0-.45-.6,4.65,4.65,0,0,0,0-.9c0-.26.35-.42.45-.6.53-.06,1.19.08,1.78,0,.36,0,.69-.19,1-.25,2-.35,4.65-.09,7-.3a8.58,8.58,0,0,1,2.48.1c.21.1.18.33.29.5a4.8,4.8,0,0,0,.77.65c1.3-.09,1.86.84,2.33,1.71a5.91,5.91,0,0,1,.74,2.21c0,.51,0,1.11.1,1.71a5.24,5.24,0,0,1,0,2.08,4.78,4.78,0,0,1-.45.81C476.86,501.22,475.8,503.5,474.5,504.67Z" transform="translate(-461.17 -488.29)" style="fill:#009ae4;fill-rule:evenodd"/><path d="M496.6,490c3.66-.15,7.39,0,11.1,0,.1.62-.13,1.39,0,2.08,0,.24.3.49.35.69a10.15,10.15,0,0,1,0,1.76v5.12c-.1.21-.29.32-.4.6a3,3,0,0,0,0,1.76c-1.21,1.13-1.47,3.24-2.33,4.72v1.71c-1.08.5-2.4,1.17-1.84,3.11-.08.22-.37.28-.55.45a10.27,10.27,0,0,0-1.53,2.78c-.21.48-.4,1-.6,1.56a8.64,8.64,0,0,0-.54,1.6c0,.3.05.65,0,1a12.59,12.59,0,0,1-.54,1.39,33.86,33.86,0,0,1-1.37,3.57c-.09.19-.26.43-.2.65.43.37.91,0,1.29-.2a5.89,5.89,0,0,1,1.14-.6,8.35,8.35,0,0,0,.89-.1,1.94,1.94,0,0,0,.74-.25,3.84,3.84,0,0,0,.74-1.1,3.76,3.76,0,0,1,2.48-2.08,3.16,3.16,0,0,1,.79-1.71c.17.1.17.36.35.45.86-.2.8-1.31,1.28-1.92H509a5.56,5.56,0,0,0,.2,2.36c-.11.2-.35.17-.49.35s-.11.33-.2.5a2,2,0,0,0-.29.65c-.19,1.48.12,3.87.1,5.42a2.26,2.26,0,0,0-1.59.81h-4.07c-.25,0-.2-.37-.4-.45-.32.12-.46,0-.69,0-.49.14-.6.74-1,.81s-1-.37-1.44-.6H496.4c-.2-.22-.49-.41-.49-.69s.36-.51.55-.76c.13-.81-.18-1.59,0-2.26.05-.22.32-.35.35-.55a2.22,2.22,0,0,0-.79-1.56,1.43,1.43,0,0,0,.35-.81c0-.3-.25-.55-.3-.81a7,7,0,0,1,.21-2.47c.08-.48.11-1,.2-1.39.05-.21.23-.4.29-.6.18-.56.12-1.17.29-1.66a9.29,9.29,0,0,1,1.44-2.08,5.73,5.73,0,0,1,1.58-3.17,24.94,24.94,0,0,1,.89-3.6,2.49,2.49,0,0,1,1.37-1.71,5.6,5.6,0,0,1,1.49-2,3.42,3.42,0,0,1,0-2.31c.14-.26.4-.37.6-.6a19.4,19.4,0,0,1,2-2.61v-2.44c-.74,0-1.45,0-2.18,0a7.41,7.41,0,0,0-1.73,0,6,6,0,0,0-1,.5,2.31,2.31,0,0,0-1,1,2.35,2.35,0,0,0-.28,1.42,1.69,1.69,0,0,0-1.49.85c-.12,1.1.17,2.24,0,3.21a2.6,2.6,0,0,1-.36.81,2.47,2.47,0,0,1-.49.69.88.88,0,0,1-.4-1.1c-.06-.24-.31-.29-.4-.5a11.15,11.15,0,0,0-.35-1.91,4.56,4.56,0,0,0,.25-2.46c-.14-.38-.41-.48-.64-.76.14-1.1-.19-2.37,0-3.36.08-.41.48-.66.4-1.06C496.66,490.05,496.64,490,496.6,490Z" transform="translate(-461.17 -488.29)" style="fill:#009ae4;fill-rule:evenodd"/><path d="M487,490.06a28.74,28.74,0,0,0,7,0,1.28,1.28,0,0,1,.64,1.46c-.75.24-2.06.94-2,2,0,.37.42.6.4,1.06s-.45.58-.55,1a10,10,0,0,0,0,2.08c.1,2.28.19,4.86,0,7.24,0,.42-.12.84-.1,1.15a4.12,4.12,0,0,0,.15.45c.14.64.27,1.26.4,1.91-.29.33-.62.48-.69,1a17.74,17.74,0,0,0,.15,2.71,3.66,3.66,0,0,0,0,.75c0,.22.13.33.15.5a3.91,3.91,0,0,1,0,1.31c-.11.31-.62.58-.69.9a3.8,3.8,0,0,0,.19,1.22c.09.42.09.87.15,1.26a4.05,4.05,0,0,0,.25.75,5.19,5.19,0,0,1,.29.69,7.58,7.58,0,0,1-.1,1.39,5.38,5.38,0,0,1-.1,1.31c-.09.24-.51.48-.54.76a4,4,0,0,0,.4,1.6c.23.38.77.54,1.19.81s.85.6,1.14.81c.08.44.1.93.2,1.39-.47-.18-1.37-.35-1.78,0a11.51,11.51,0,0,0-4.21,0c-.38.15-.65.69-.94.69s-.69-.5-.84-.65a5.61,5.61,0,0,1,1.78-1.86,23.94,23.94,0,0,0,.25-3.76,7,7,0,0,1,0-1.26c.07-.26.32-.35.35-.6s-.27-.62-.35-1.06a3.2,3.2,0,0,1,.08-1.33c.07-.24.29-.44.35-.69a17.38,17.38,0,0,0,0-2.41c0-3.78-.1-7.78-.1-11.4a9.24,9.24,0,0,1,0-1.86c.07-.24.11-.22.35-.4,0-.21-.31-.12-.35-.3-.14-2.08-.29-4.8-.4-7.13a3.84,3.84,0,0,0-.1-1c-.25-.69-1.28-.35-1.53-1.06a1.24,1.24,0,0,1-.49,0,6.19,6.19,0,0,0-.64-.65A3.46,3.46,0,0,1,487,490.06Z" transform="translate(-461.17 -488.29)" style="fill:#009ae4;fill-rule:evenodd"/></svg>